<svg xmlns="http://www.w3.org/2000/svg" width="32" height="32" viewBox="0 0 32 32">
  <path id="vegetarian_mark" d="M31.078,6.621a10.589,10.589,0,0,0-1.592.079,9.07,9.07,0,0,0-5.218,2.44,8.39,8.39,0,0,0-.662,10.981,1.25,1.25,0,0,0,.212.237c-.195.354-.181.274-.379.643A81.06,81.06,0,0,0,18.5,31.863a133.687,133.687,0,0,0-3.187-15.486c-1.3-4.161-3.658-6.066-5.693-6.707a6.918,6.918,0,0,0-3.764-.109,1.242,1.242,0,0,0-.872.919,1.344,1.344,0,0,0,.336,1.26,1.141,1.141,0,0,0,1.194.287,4.467,4.467,0,0,1,2.428.105c1.361.429,2.993,1.518,4.095,5.056,1.646,5.289,3.907,20.057,3.934,20.233a1.26,1.26,0,0,0,.933,1.161q.05.012.1.02l.03,0,.07.005.061,0,.042,0q.044,0,.087-.007l.022,0q.046-.006.091-.015l.011,0,.016-.005q.05-.012.1-.028a1.261,1.261,0,0,0,.822-1.026c.9-4.637,3.633-10.561,6.156-15.249S30.337,14.1,30.337,14.1a1.359,1.359,0,0,0,.137-1.3,1.206,1.206,0,0,0-1-.754,1.174,1.174,0,0,0-1.1.572s-1.788,3.049-3.158,5.359c-1.619-2.747-1.115-5.222.655-6.939,1.625-1.576,4.422-2.311,7.7-1.332a9.327,9.327,0,0,0-1.078,3.3,31.154,31.154,0,0,1-.629,4.119c-.621,1.5-1.394,2.429-2.715,2.669a1.218,1.218,0,0,0-.955.812,1.355,1.355,0,0,0,.2,1.287,1.155,1.155,0,0,0,1.151.431,6.335,6.335,0,0,0,4.507-4.159,19.391,19.391,0,0,0,.805-4.755c.225-1.52.594-2.633,1.508-3.235A1.312,1.312,0,0,0,36.945,9a1.284,1.284,0,0,0-.709-1.087A12.769,12.769,0,0,0,31.078,6.621Z" transform="translate(-4.947 -6.617)" fill="#fff"/>
</svg>
