<svg xmlns="http://www.w3.org/2000/svg" width="45.875" height="43.875" viewBox="0 0 45.875 43.875">
  <path id="topic" d="M25,4.063C12.414,4.063,2.063,12.926,2.063,24c0,6.426,3.563,12.094,8.938,15.719a5.905,5.905,0,0,1-.281,1.594A16.256,16.256,0,0,1,8.25,46.469L7.219,47.906,9,47.938A13.7,13.7,0,0,0,19.313,43.25,26.108,26.108,0,0,0,25,43.938c12.582,0,22.938-8.863,22.938-19.937S37.582,4.063,25,4.063Zm0,1.875C36.715,5.938,46.063,14.09,46.063,24S36.715,42.063,25,42.063a24.511,24.511,0,0,1-5.781-.687l-.562-.125-.375.469a14.033,14.033,0,0,1-7.5,4.031,18.967,18.967,0,0,0,1.75-3.937,10.969,10.969,0,0,0,.406-2.5v-.5l-.437-.281C7.273,35.219,3.938,29.941,3.938,24,3.938,14.09,13.281,5.938,25,5.938Z" transform="translate(-2.063 -4.063)" fill="#fff"/>
</svg>
