<svg xmlns="http://www.w3.org/2000/svg" width="151.5" height="105" viewBox="0 0 151.5 105">
  <path id="left" d="M65.879,108.4c-31.809-17.85-60.6-45.881-61.369-47.15A6.33,6.33,0,0,1,3,57.414a10.646,10.646,0,0,1,1.509-4.456c.769-1.27,30.3-29.326,61.369-47.175,2.279-1.27,5.3-1.27,8.314-.622,3.048,1.917,4.557,3.809,4.557,6.373V35.109s65.9,3.187,68.945,5.1c4.527,2.539,6.805,10.829,6.805,17.2,0,7.021-3.018,14.016-6.805,16.58C144.646,75.886,78.75,79.72,78.75,79.72v23.575c0,2.565-1.509,4.456-4.557,5.751C71.945,110.315,68.9,109.668,65.879,108.4Z" transform="translate(-3 -4.734)" fill="#fff"/>
</svg>
