<svg xmlns="http://www.w3.org/2000/svg" width="112.819" height="110.731" viewBox="0 0 112.819 110.731">
  <path id="pigeon" d="M35.844,5.5a13.567,13.567,0,0,0-12.427,8.84L8.489,52.345a26.615,26.615,0,0,0-1.074,15.4A26.09,26.09,0,0,0,27.887,87.8a26.017,26.017,0,0,0,8.226,3.281l3.932.728c-1.073,2.37-2.234,5.013-2.5,5.468a1.8,1.8,0,0,1-3.309-.728,2.654,2.654,0,0,0-3.4-2.1,2.816,2.816,0,0,0-1.877,3.28,7.328,7.328,0,0,0,3.932,5.2v7.838H26.9a2.844,2.844,0,0,0-2.86,2.553,2.761,2.761,0,0,0,2.682,2.915H38.079a2.844,2.844,0,0,0,2.86-2.553,2.761,2.761,0,0,0-2.682-2.915V103.2a7.045,7.045,0,0,0,3.934-3.28c.089-.182.089-.181,3.218-7.108l49.438,9.569c.179,0,.358.09.536.09a2.613,2.613,0,0,0,2.593-2.187,2.767,2.767,0,0,0-2.146-3.19L37.1,85.609a19.912,19.912,0,0,1-10.461-5.742,2.844,2.844,0,0,1,2.057-4.829H69.457a8.328,8.328,0,0,0,8.226-9.569C90.02,74.218,101.1,82.055,102.176,82.875a1.771,1.771,0,0,1,.538,1.823,1.83,1.83,0,0,1-1.788,1.367H79.471a2.844,2.844,0,0,0-2.862,2.551,2.763,2.763,0,0,0,2.682,2.917h21.544a7.3,7.3,0,0,0,4.739-12.942c-.089-.091-.268-.181-49.974-35.36-.268-.182-.446-.273-.714-.456L48.9,16.071A13.4,13.4,0,0,0,36.738,5.5Zm0,10.025a3.646,3.646,0,1,1-3.576,3.645A3.622,3.622,0,0,1,35.844,15.525Zm-20.921,3.7a2.809,2.809,0,0,0-1.07.126L8.489,21.175a2.761,2.761,0,0,0-1.61,3.464,2.662,2.662,0,0,0,2.5,1.914,1.308,1.308,0,0,0,.8-.182l5.364-1.823a2.73,2.73,0,0,0,1.7-3.464A2.617,2.617,0,0,0,14.923,19.226ZM3.483,110.763a2.735,2.735,0,0,0,0,5.468H15.194a2.735,2.735,0,0,0,0-5.468Zm47.381,0a2.735,2.735,0,0,0,0,5.468H97.529a2.735,2.735,0,0,0,0-5.468Zm60.075,0a2.735,2.735,0,1,0,2.682,2.734,2.708,2.708,0,0,0-2.682-2.734Z" transform="translate(-0.801 -5.5)" fill="#fff"/>
</svg>
