<svg xmlns="http://www.w3.org/2000/svg" width="15.34" height="15.979" viewBox="0 0 15.34 15.979">
  <path id="hide" d="M1.782,1.023l-.727.867L3.433,4.733A9.043,9.043,0,0,0,.171,8.765L.082,9.01l.089.246c.077.217,2,5.3,7.579,5.3.19,0,.359-.029.541-.038H8.3a7.8,7.8,0,0,0,2.774-.674L13.714,17l.735-.877L12.074,13.3l-.707-.843-.065-.072L9.147,9.8,7.088,7.344,5.594,5.566l-.355-.424-.816-.968ZM7.75,3.461a8.234,8.234,0,0,0-1.591.164L7.12,4.771a3.024,3.024,0,0,1,.63-.077c1.995,0,3.618,1.936,3.618,4.316a5.065,5.065,0,0,1-.065.751l.84,1A6.537,6.537,0,0,0,12.4,9.01a6.243,6.243,0,0,0-.9-3.247A7.81,7.81,0,0,1,14.279,9.01a8.073,8.073,0,0,1-1.643,2.341l.735.877a9.171,9.171,0,0,0,1.958-2.972l.093-.246-.093-.246C15.252,8.548,13.33,3.461,7.75,3.461ZM3.995,5.783a6.284,6.284,0,0,0,0,6.469A7.776,7.776,0,0,1,1.221,9.01,7.855,7.855,0,0,1,3.995,5.783Zm.88.665L6.361,8.23a2.12,2.12,0,0,0-.162.78A1.721,1.721,0,0,0,7.75,10.86a1.339,1.339,0,0,0,.654-.193L9.9,12.44a3.2,3.2,0,0,1-2.148.886c-1.995,0-3.618-1.936-3.618-4.316A4.762,4.762,0,0,1,4.875,6.448Z" transform="translate(-0.082 -1.023)" fill="#999"/>
</svg>
