<svg xmlns="http://www.w3.org/2000/svg" width="16" height="12" viewBox="0 0 16 12">
  <path id="eye" d="M7.947,4C2.233,4,.053,9.719.053,9.719L-.055,10l.108.281S2.233,16,7.947,16s7.894-5.719,7.894-5.719l.1-.281-.1-.281S13.661,4,7.947,4Zm0,1.333C10,5.333,11.655,7.417,11.655,10S10,14.667,7.947,14.667,4.24,12.583,4.24,10,5.9,5.333,7.947,5.333ZM4.178,6.37a7.107,7.107,0,0,0,0,7.26A7.851,7.851,0,0,1,1.187,10,7.85,7.85,0,0,1,4.178,6.37Zm7.539,0A7.85,7.85,0,0,1,14.708,10a7.85,7.85,0,0,1-2.991,3.63,7.107,7.107,0,0,0,0-7.26ZM7.947,8a1.831,1.831,0,0,0-1.589,2,1.831,1.831,0,0,0,1.589,2,1.831,1.831,0,0,0,1.589-2A1.831,1.831,0,0,0,7.947,8Z" transform="translate(0.055 -4)" fill="#999"/>
</svg>
