<svg xmlns="http://www.w3.org/2000/svg" width="100" height="100" viewBox="0 0 100 100">
  <path id="Add_New" data-name="Add New" d="M105.36,26.66A20.527,20.527,0,0,0,87.34,8.64,265,265,0,0,0,57,7,265,265,0,0,0,26.66,8.64,20.527,20.527,0,0,0,8.64,26.66,265,265,0,0,0,7,57,265,265,0,0,0,8.64,87.34a20.527,20.527,0,0,0,18.02,18.02A265,265,0,0,0,57,107a265,265,0,0,0,30.34-1.64,20.527,20.527,0,0,0,18.02-18.02A265,265,0,0,0,107,57,265,265,0,0,0,105.36,26.66ZM87,60.53,62.294,62.294,60.53,87H53.472L51.708,62.294,27,60.53V53.472l24.706-1.764L53.47,27h7.058l1.764,24.706L87,53.47Z" transform="translate(-7 -7)" fill="#fff"/>
</svg>
