<svg xmlns="http://www.w3.org/2000/svg" width="40" height="40" viewBox="0 0 40 40">
  <path id="refresh" d="M19.455,4a8.661,8.661,0,0,0-8.688,8.571V34.06l-5.1-5.03L4.281,30.4l6.757,6.667.694.655.694-.655L19.183,30.4,17.8,29.03l-5.1,5.03V12.571A6.725,6.725,0,0,1,19.455,5.9H30.073V4ZM36.83,10.28l-.694.655L29.379,17.6l1.388,1.369,5.1-5.03V35.429A6.725,6.725,0,0,1,29.108,42.1H18.489V44H29.108A8.661,8.661,0,0,0,37.8,35.429V13.94l5.1,5.03L44.281,17.6l-6.757-6.667Z" transform="translate(-4.281 -4)" fill="#fff"/>
</svg>
