<svg xmlns="http://www.w3.org/2000/svg" width="44.015" height="37" viewBox="0 0 44.015 37">
  <path id="closed_eye" d="M25.145,8A23.159,23.159,0,0,0,9.279,14.439,1,1,0,1,0,10.646,15.9a21.115,21.115,0,0,1,14.5-5.9,21.1,21.1,0,0,1,14.438,5.844,1,1,0,1,0,1.362-1.465A23.141,23.141,0,0,0,25.145,8ZM45.49,20.938a1,1,0,0,0-.934.688C40.546,29.072,33.337,34,25.117,34c-8.2,0-15.4-4.908-19.412-12.328A1,1,0,0,0,3.758,22v.049a1,1,0,0,0,.117.473,27.229,27.229,0,0,0,5.072,6.736L3.27,35.316A1,1,0,0,0,4.73,36.684l5.711-6.1a24.216,24.216,0,0,0,5.381,3.381L12.1,41.561a1,1,0,1,0,1.8.879l3.785-7.727A22.294,22.294,0,0,0,24,35.959q0,.02,0,.041v8a1,1,0,1,0,2,0V36q0-.017,0-.033a22.356,22.356,0,0,0,6.522-1.25l3.574,7.7a1,1,0,1,0,1.813-.84l-3.529-7.611a24.046,24.046,0,0,0,5.072-3.105l5.844,5.844a1,1,0,0,0,.816.3q.049,0,.1-.014a1,1,0,0,0,.5-1.7l-5.742-5.742a27.143,27.143,0,0,0,5.422-7.08A1,1,0,0,0,46.506,22v-.049a1,1,0,0,0-1.016-1.014Z" transform="translate(-3 -8)" fill="#fff"/>
</svg>
