<svg xmlns="http://www.w3.org/2000/svg" width="38.566" height="42.222" viewBox="0 0 38.566 42.222">
  <path id="trash" d="M26.069,2a2.566,2.566,0,0,0-2.009.981L21.65,6.524H12.41A2.3,2.3,0,0,0,10,8.786v4.524a2.3,2.3,0,0,0,2.41,2.262h.078L15.3,40.829a3.93,3.93,0,0,0,4.017,3.393H39.248a3.93,3.93,0,0,0,4.017-3.393l2.812-25.258h.078a2.3,2.3,0,0,0,2.41-2.262V8.786a2.3,2.3,0,0,0-2.41-2.262h-9.24L34.427,2.981A2.45,2.45,0,0,0,32.418,2Zm.078,1.508H32.5a1.017,1.017,0,0,1,.643.3l1.845,2.715H23.58l1.845-2.715A1.048,1.048,0,0,1,26.148,3.508ZM12.41,8.032H46.156a.735.735,0,0,1,.8.754v4.524a.735.735,0,0,1-.8.754H12.41a.735.735,0,0,1-.8-.754V8.786A.735.735,0,0,1,12.41,8.032Zm2.41,1.508a.735.735,0,0,0-.8.754V11.8a.805.805,0,0,0,1.607,0V10.294A.735.735,0,0,0,14.821,9.54Zm4.017,0a.735.735,0,0,0-.8.754V11.8a.805.805,0,0,0,1.607,0V10.294A.735.735,0,0,0,18.838,9.54Zm4.017,0a.735.735,0,0,0-.8.754V11.8a.805.805,0,0,0,1.607,0V10.294A.735.735,0,0,0,22.855,9.54Zm4.017,0a.735.735,0,0,0-.8.754V11.8a.805.805,0,0,0,1.607,0V10.294A.735.735,0,0,0,26.873,9.54Zm4.821,0a.735.735,0,0,0-.8.754V11.8a.805.805,0,0,0,1.607,0V10.294A.735.735,0,0,0,31.693,9.54Zm4.017,0a.735.735,0,0,0-.8.754V11.8a.805.805,0,0,0,1.607,0V10.294A.735.735,0,0,0,35.711,9.54Zm4.017,0a.735.735,0,0,0-.8.754V11.8a.805.805,0,0,0,1.607,0V10.294A.735.735,0,0,0,39.728,9.54Zm4.017,0a.735.735,0,0,0-.8.754V11.8a.805.805,0,0,0,1.607,0V10.294A.735.735,0,0,0,43.745,9.54ZM14.1,15.571H44.47L41.658,40.679a2.386,2.386,0,0,1-2.41,2.035H19.318a2.447,2.447,0,0,1-2.41-2.035Zm15.187,3.77a.735.735,0,0,0-.8.754V35.174a.805.805,0,0,0,1.607,0V20.1A.735.735,0,0,0,29.283,19.341Zm-7.231.074a.67.67,0,0,0-.725.754l.8,15.079c-.078.377.323.68.725.68a.78.78,0,0,0,.8-.754l-.8-15.079A.682.682,0,0,0,22.052,19.415Zm14.541,0a.727.727,0,0,0-.8.68l-.8,15.079a.67.67,0,0,0,.725.754.725.725,0,0,0,.8-.68l.8-15.079A.718.718,0,0,0,36.593,19.415ZM20.445,39.7a.755.755,0,1,0,0,1.508H31.693a.755.755,0,1,0,0-1.508Zm14.462,0a.755.755,0,1,0,0,1.508h3.214a.755.755,0,1,0,0-1.508Z" transform="translate(-10 -2)" fill="#fff"/>
</svg>
