<svg xmlns="http://www.w3.org/2000/svg" width="40" height="45" viewBox="0 0 40 45">
  <path id="lock" d="M26,3C19.014,3,13.368,8.135,13.368,14.489v4.787H9.158A3.041,3.041,0,0,0,6,22.149V45.128A3.041,3.041,0,0,0,9.158,48H42.842A3.041,3.041,0,0,0,46,45.128V22.149a3.041,3.041,0,0,0-3.158-2.872H38.632V14.489C38.632,8.135,32.986,3,26,3Zm0,1.915c5.859,0,10.526,4.245,10.526,9.574v4.787H15.474V14.489C15.474,9.16,20.141,4.915,26,4.915ZM9.158,21.191H42.842a1,1,0,0,1,1.053.957V45.128a1,1,0,0,1-1.053.957H9.158a1,1,0,0,1-1.053-.957V22.149A1,1,0,0,1,9.158,21.191ZM26,28.851a2.972,2.972,0,0,0-3.158,2.872,2.622,2.622,0,0,0,1.053,2.094v2.693a2.115,2.115,0,0,0,4.211,0V33.818a2.622,2.622,0,0,0,1.053-2.094A2.972,2.972,0,0,0,26,28.851Z" transform="translate(-6 -3)" fill="#fff"/>
</svg>
