<svg xmlns="http://www.w3.org/2000/svg" width="38" height="38" viewBox="0 0 38 38">
  <path id="contacts" d="M25,4C17.675,4,11.7,9.431,11.7,16.091a11.851,11.851,0,0,0,5.819,9.986C10.72,28.708,6,34.848,6,42H9.8c0-7.712,6.717-13.818,15.2-13.818S40.2,34.288,40.2,42H44c0-7.152-4.72-13.292-11.519-15.923A11.85,11.85,0,0,0,38.3,16.091C38.3,9.431,32.325,4,25,4Zm0,3.455c5.269,0,9.5,3.846,9.5,8.636s-4.231,8.636-9.5,8.636-9.5-3.846-9.5-8.636S19.731,7.455,25,7.455Z" transform="translate(-6 -4)" fill="#fff"/>
</svg>
