<svg xmlns="http://www.w3.org/2000/svg" width="40" height="40" viewBox="0 0 40 40">
  <path id="name" d="M8.762,4A4.782,4.782,0,0,0,4,8.762V39.238A4.781,4.781,0,0,0,8.762,44H39.238A4.781,4.781,0,0,0,44,39.238V8.762A4.781,4.781,0,0,0,39.238,4Zm0,1.9H39.238A2.86,2.86,0,0,1,42.1,8.762V39.238a2.851,2.851,0,0,1-2.041,2.723,6.976,6.976,0,0,0-1.879-3.668,11.747,11.747,0,0,0-3.824-2.414c-1.341-.579-2.663-1.032-3.67-1.533a3.5,3.5,0,0,1-1.8-1.562c-.059-.977-.068-1.782-.069-2.651a5.04,5.04,0,0,0,.954-1.408,8.918,8.918,0,0,0,.7-2.364,3.144,3.144,0,0,0,1.5-2.645l0,0v-.006a2.657,2.657,0,0,0-.519-1.9,14.587,14.587,0,0,0,.712-5.4,6.423,6.423,0,0,0-1.118-3.335,4.864,4.864,0,0,0-2.986-1.76,3.379,3.379,0,0,0-1.482-1.159,7.262,7.262,0,0,0-2.662-.439h-.022c-3.784.091-6.245,1.664-7.3,4.05-1,2.255-.788,5.036-.093,7.907a2.384,2.384,0,0,0-.536,2,3.114,3.114,0,0,0,1.492,2.612,8.7,8.7,0,0,0,.742,2.34,7.634,7.634,0,0,0,.664,1.088c.093.124.229.206.326.314a19.1,19.1,0,0,1-.065,2.69,3.373,3.373,0,0,1-1.775,1.6c-1,.51-2.321.969-3.666,1.553a11.942,11.942,0,0,0-3.841,2.422,6.971,6.971,0,0,0-1.894,3.672A2.851,2.851,0,0,1,5.9,39.238V8.762A2.86,2.86,0,0,1,8.762,5.9Zm15.162,5.716a5.562,5.562,0,0,1,1.953.305,1.321,1.321,0,0,1,.768.586l.218.48.524.069A2.845,2.845,0,0,1,29.51,14.2a4.647,4.647,0,0,1,.753,2.361,14.315,14.315,0,0,1-.742,5.126l-.242.7.614.409c-.067-.045.233.121.179.737v0c-.15,1.41-.75,1.35-.42,1.35H28.79l-.087.856a6.822,6.822,0,0,1-.647,2.15c-.311.637-.822,1.123-.673,1.038L26.9,29.2v.554c0,1.108,0,2.078.087,3.387l.011.145.052.136a5.215,5.215,0,0,0,2.783,2.628c1.182.588,2.515,1.036,3.763,1.576a10.108,10.108,0,0,1,3.222,2A4.821,4.821,0,0,1,38.152,42.1H9.85a4.817,4.817,0,0,1,1.343-2.465,10.309,10.309,0,0,1,3.244-2.014c1.255-.545,2.593-1,3.774-1.605a5.131,5.131,0,0,0,2.747-2.7l.034-.095.013-.1A22.257,22.257,0,0,0,21.1,29.67v-.554l-.482-.273c.081.046-.08-.068-.231-.27a5.952,5.952,0,0,1-.495-.817,6.654,6.654,0,0,1-.683-2.106l-.089-.852H18.3c-.06-.025-.349-.216-.458-1.354l0-.041-.008-.039c-.1-.546.175-.646.188-.655l.567-.376-.173-.66c-.742-2.832-.846-5.411-.082-7.137S20.612,11.7,23.924,11.621Z" transform="translate(-4 -4)" fill="#fff"/>
</svg>
