<svg xmlns="http://www.w3.org/2000/svg" width="32" height="32" viewBox="0 0 32 32">
  <path id="_201255555555654687486465416" data-name="201255555555654687486465416" d="M8.957,0A1.373,1.373,0,0,0,7.565,1.333V2.667H3.391a1.436,1.436,0,0,0-.995.38A1.315,1.315,0,0,0,2,4V30.667a1.326,1.326,0,0,0,.4.956A1.446,1.446,0,0,0,3.391,32H32.609a1.458,1.458,0,0,0,1-.378A1.334,1.334,0,0,0,34,30.667V4a1.324,1.324,0,0,0-.394-.953,1.448,1.448,0,0,0-1-.38H28.435V1.333A1.373,1.373,0,0,0,27.043,0H25.652a1.373,1.373,0,0,0-1.391,1.333V2.667H11.739V1.333A1.373,1.373,0,0,0,10.348,0Zm0,1.333h1.391v4H8.957Zm16.7,0h1.391v4H25.652ZM3.391,4H7.565V5.333A1.373,1.373,0,0,0,8.957,6.667h1.391a1.373,1.373,0,0,0,1.391-1.333V4H24.261V5.333a1.373,1.373,0,0,0,1.391,1.333h1.391a1.373,1.373,0,0,0,1.391-1.333V4h4.174V8.667H3.391Zm0,6H32.609V30.667H3.391Zm4.87,6v2.667H9.652V16Zm6.261,0a2.143,2.143,0,0,1-2.087,1.565v1.1h2.087v6h1.391V16Zm7.261,0a3.039,3.039,0,0,0-2.7,1.336,2.793,2.793,0,0,0-.391,1.331h1.391A1.523,1.523,0,0,1,20.293,18c.2-.333.5-.664,1.489-.664,1.068,0,1.386.341,1.584.669a1.39,1.39,0,0,1,.2.651v.013A1.582,1.582,0,0,1,23,19.854a8.324,8.324,0,0,1-1.543,1.094,12.294,12.294,0,0,0-1.772,1.177A2.521,2.521,0,0,0,18.7,24v.667h6.261V23.333h-4.47c.068-.073.038-.138.133-.219A11.948,11.948,0,0,1,22.2,22.081a9.23,9.23,0,0,0,1.8-1.3,3.011,3.011,0,0,0,.957-2.107,2.693,2.693,0,0,0-.389-1.344A3.14,3.14,0,0,0,21.783,16Z" transform="translate(-2)" fill="#fff"/>
</svg>
