<?xml version="1.0" encoding="utf-8"?>
<svg xmlns="http://www.w3.org/2000/svg" viewBox="0 0 24 24" width="96" height="96">
  <path d="M9.984375 2.9863281 A 1.0001 1.0001 0 0 0 9 4L9 11L6 11L6 9.140625C6 8.698625 5.4724375 8.4675781 5.1484375 8.7675781L2.1953125 11.507812C1.9353125 11.767812 1.9353125 12.190172 2.1953125 12.451172L5.1484375 15.191406C5.4724375 15.491406 6 15.260359 6 14.818359L6 13L9 13L9 20 A 1.0001 1.0001 0 1 0 11 20L11 4 A 1.0001 1.0001 0 0 0 9.984375 2.9863281 z M 13.984375 2.9863281 A 1.0001 1.0001 0 0 0 13 4L13 20 A 1.0001 1.0001 0 1 0 15 20L15 13L18 13L18 14.818359C18 15.260359 18.527563 15.491406 18.851562 15.191406L21.804688 12.451172C22.064687 12.190172 22.064688 11.767812 21.804688 11.507812L18.851562 8.7675781C18.527563 8.4675781 18 8.698625 18 9.140625L18 11L15 11L15 4 A 1.0001 1.0001 0 0 0 13.984375 2.9863281 z" fill="#FFFFFF" />
</svg>