<?xml version="1.0" encoding="utf-8"?>
<svg xmlns="http://www.w3.org/2000/svg" viewBox="0 0 24 24" width="96" height="96">
  <path d="M18 1C14.67619 1 12 3.6761905 12 7L12 8L2.9296875 8C1.8344913 8 1 8.9455845 1 10L1 20C1 21.054415 1.8344913 22 2.9296875 22L14.070312 22C15.16551 22 16 21.054415 16 20L16 10C16 8.9455845 15.167599 8 14.072266 8L14 8L14 7C14 4.7238095 15.72381 3 18 3C20.27619 3 22 4.7238095 22 7L22 9L24 9L24 7C24 3.6761905 21.32381 1 18 1 z M 3 10L14 10L14 20L3 20L3 10 z M 8.5078125 13C7.4078125 13 6.5078125 13.9 6.5078125 15C6.5078125 16.1 7.4078125 17 8.5078125 17C9.6078125 17 10.507812 16.1 10.507812 15C10.507812 13.9 9.6078125 13 8.5078125 13 z" fill="#FFFFFF" />
</svg>