<svg xmlns="http://www.w3.org/2000/svg" width="71.032" height="69.254" viewBox="0 0 71.032 69.254">
  <path id="peace_pigeon" d="M59,0a8.542,8.542,0,0,0-1.075,3.84,8.372,8.372,0,0,0,.509,3.235,8.5,8.5,0,0,0,.977,1.805A7.639,7.639,0,0,0,56.8,7.6a7.412,7.412,0,0,0-3.1-.141,7.958,7.958,0,0,0-3.52,1.529,8.154,8.154,0,0,0,2.376,3.058,7.469,7.469,0,0,0,5.9,1.517,8.822,8.822,0,0,0,1.775-.529,51.266,51.266,0,0,1,1.63,9.833c-2.1-2.35-5.144-4.8-8.763-4.8-4.386,0-7.547,2.78-11.214,6a67.466,67.466,0,0,1-6.214,5.022C24.214,26.444,10.936,13.065,10.8,12.926L6.508,8.58l-.751,6.1c-1.734,14.128,2.661,25.171,12.2,31.057a22.27,22.27,0,0,1-4.376,2.623,15.31,15.31,0,0,1-9.745,0L0,46.877A41.1,41.1,0,0,0,1.959,59.315a22.017,22.017,0,0,0,6.734,9.939s5.553-7.659,9.815-9.192c7.943-2.854,13.156,1.845,22.739-2.852,11.924-5.841,8.88-18.065,14.485-25.753a12.157,12.157,0,0,1,6.22-3.952,34.581,34.581,0,0,1-2.636,13.3L64.611,43.5a40.056,40.056,0,0,0,3.272-16.4A57.578,57.578,0,0,0,66,11.7,10.13,10.13,0,0,0,67.05,11.3a7.015,7.015,0,0,0,3.716-4.517,7.983,7.983,0,0,0,.075-3.776,7.553,7.553,0,0,0-3.642.741A6.928,6.928,0,0,0,64.865,5.6a6.936,6.936,0,0,0-.515.782,8.12,8.12,0,0,0-2.069-4.2A8.275,8.275,0,0,0,59,0ZM23.5,6.022v6.022c0,1.283-.056,2.573-.144,3.829a48.23,48.23,0,0,0,11.167,6.593c.888-.717,1.717-1.442,2.543-2.164A27.029,27.029,0,0,0,28.225,9.633Z" fill="#65a2ff"/>
</svg>
