<svg xmlns="http://www.w3.org/2000/svg" width="60.002" height="64.437" viewBox="0 0 60.002 64.437">
  <path id="repeat" d="M47.47,5.281l-8.334,8.17-1.146,1.174L39.137,15.8l8.334,8.169,2.4-2.349L44.4,16.259H60.335a3.275,3.275,0,0,1,3.333,3.268V55.472a3.275,3.275,0,0,1-3.333,3.268h-20v3.268h20A6.623,6.623,0,0,0,67,55.472V19.527a6.623,6.623,0,0,0-6.667-6.536H44.4L49.866,7.63Zm-33.8,7.71A6.623,6.623,0,0,0,7,19.527V55.472a6.623,6.623,0,0,0,6.667,6.536H29.605l-5.469,5.361,2.4,2.349,8.334-8.169,1.146-1.174L34.866,59.2,26.532,51.03l-2.4,2.349,5.469,5.361H13.667a3.275,3.275,0,0,1-3.333-3.268V19.527a3.275,3.275,0,0,1,3.333-3.268h20V12.991Z" transform="translate(-7 -5.281)" fill="#16f5a9"/>
</svg>
