<svg xmlns="http://www.w3.org/2000/svg" width="40" height="46" viewBox="0 0 40 46">
  <path id="repeat" d="M33.979,5.281l-5.556,5.832-.764.838.764.838,5.556,5.832,1.6-1.677-3.646-3.827H42.556a2.261,2.261,0,0,1,2.222,2.333V41.112a2.261,2.261,0,0,1-2.222,2.333H29.222v2.333H42.556A4.574,4.574,0,0,0,47,41.112V15.451a4.574,4.574,0,0,0-4.444-4.666H31.931l3.646-3.827Zm-22.535,5.5A4.574,4.574,0,0,0,7,15.451V41.112a4.574,4.574,0,0,0,4.444,4.666H22.069L18.424,49.6l1.6,1.677,5.556-5.832.764-.838-.764-.838-5.556-5.832-1.6,1.677,3.646,3.827H11.444a2.261,2.261,0,0,1-2.222-2.333V15.451a2.261,2.261,0,0,1,2.222-2.333H24.778V10.785Z" transform="translate(-7 -5.281)" fill="#fff"/>
</svg>
