<?xml version="1.0" encoding="utf-8"?>
<svg xmlns="http://www.w3.org/2000/svg" viewBox="0 0 50 50" width="500" height="500">
  <path d="M6.9707031 1.9726562 A 2.0002 2.0002 0 0 0 5 4L5 15L16 15 A 2.0002 2.0002 0 1 0 16 11L12.164062 11C15.542723 7.8982503 20.038531 6 25 6C35.517124 6 44 14.482876 44 25C44 35.517124 35.517124 44 25 44C14.482876 44 6 35.517124 6 25 A 2.0002 2.0002 0 1 0 2 25C2 37.678876 12.321124 48 25 48C37.678876 48 48 37.678876 48 25C48 12.321124 37.678876 2 25 2C18.791456 2 13.142048 4.4700924 9 8.4804688L9 4 A 2.0002 2.0002 0 0 0 6.9707031 1.9726562 z" fill="#FFFFFF" />
</svg>