<svg xmlns="http://www.w3.org/2000/svg" width="40" height="37.254" viewBox="0 0 40 37.254">
  <path id="peace_pigeon" d="M33.227,0a4.44,4.44,0,0,0-.605,2.066,4.321,4.321,0,0,0,.286,1.74,4.51,4.51,0,0,0,.55.971,4.313,4.313,0,0,0-3.222-.766,4.59,4.59,0,0,0-1.982.823,4.42,4.42,0,0,0,1.338,1.645,4.326,4.326,0,0,0,1.572.747,4.465,4.465,0,0,0,1.748.07,5.144,5.144,0,0,0,1-.285,26.451,26.451,0,0,1,.918,5.29,7.1,7.1,0,0,0-4.934-2.581c-2.47,0-4.25,1.5-6.315,3.227a37.727,37.727,0,0,1-3.5,2.7c-6.444-1.422-13.921-8.619-14-8.694L3.665,4.616,3.242,7.9c-.977,7.6,1.5,13.54,6.868,16.707a12.674,12.674,0,0,1-2.464,1.411,9,9,0,0,1-5.488,0L0,25.217a21.2,21.2,0,0,0,1.1,6.691A11.837,11.837,0,0,0,4.9,37.254s3.127-4.12,5.527-4.945c4.473-1.536,7.409.992,12.8-1.534,6.714-3.142,5-9.718,8.157-13.853a6.891,6.891,0,0,1,3.5-2.126A17.882,17.882,0,0,1,33.4,21.952L36.384,23.4a20.717,20.717,0,0,0,1.842-8.823,29.663,29.663,0,0,0-1.061-8.285,5.875,5.875,0,0,0,.592-.212,3.954,3.954,0,0,0,1.321-.993,3.756,3.756,0,0,0,.771-1.436,4.108,4.108,0,0,0,.042-2.031,4.423,4.423,0,0,0-2.051.4,3.879,3.879,0,0,0-1.315.993,3.72,3.72,0,0,0-.29.421,4.3,4.3,0,0,0-1.165-2.259A4.681,4.681,0,0,0,33.227,0Zm-20,3.24v3.24c0,.69-.031,1.384-.081,2.059a27.467,27.467,0,0,0,6.289,3.546c.5-.385.967-.775,1.432-1.164a14.714,14.714,0,0,0-4.977-5.739Z" fill="#fff"/>
</svg>
