<svg xmlns="http://www.w3.org/2000/svg" width="32" height="32" viewBox="0 0 32 32">
  <path id="pen" d="M25.464,1.849A3.272,3.272,0,0,0,23.07,3.126L18.92,8.607h-8.6L2.488,33.841l25.453-7.765V17.5l5.25-4.34a3.269,3.269,0,0,0,.353-4.906L28.015,2.777A3.281,3.281,0,0,0,25.464,1.849Zm.231,3.231,5.528,5.478-.032.025L26.4,14.539l-4.5-4.458ZM12.744,11.86h6.314l5.6,5.554v6.259L10.8,27.9l4.811-4.769a3.309,3.309,0,0,0,.846.114,3.254,3.254,0,1,0-3.282-3.253,3.227,3.227,0,0,0,.112.842L8.478,25.6Z" transform="translate(-2.488 -1.841)" fill="#fff"/>
</svg>
