<svg xmlns="http://www.w3.org/2000/svg" width="18" height="21" viewBox="0 0 18 21">
  <path id="lock" d="M19,4c-3.638,0-6.6,2.469-6.6,5.5v2.922A6.842,6.842,0,0,0,10,17.5c0,4.137,4.036,7.5,9,7.5s9-3.363,9-7.5a6.842,6.842,0,0,0-2.4-5.078V9.5C25.6,6.469,22.638,4,19,4Zm0,1c2.991,0,5.4,2.008,5.4,4.5v2.016a10.377,10.377,0,0,0-10.8,0V9.5C13.6,7.008,16.009,5,19,5Zm0,6c4.315,0,7.8,2.9,7.8,6.5S23.315,24,19,24s-7.8-2.9-7.8-6.5S14.685,11,19,11Zm0,5a1.671,1.671,0,0,0-1.8,1.5,1.545,1.545,0,0,0,1.2,1.406V20a.61.61,0,0,0,1.2,0V18.906A1.545,1.545,0,0,0,20.8,17.5,1.671,1.671,0,0,0,19,16Z" transform="translate(-10 -4)" fill="#fff"/>
</svg>
