<svg xmlns="http://www.w3.org/2000/svg" width="17" height="18.5" viewBox="0 0 17 18.5">
  <path id="synchronize" d="M9.5,1.035C4.816,1.035,1,5.182,1,10.282v.691H2.308v-.691c0-4.325,3.213-7.82,7.192-7.82a6.909,6.909,0,0,1,5.353,2.625L13.377,6.693H18V1.665L15.778,4.079A8.172,8.172,0,0,0,9.5,1.035Zm7.192,8.511v.713c0,4.342-3.213,7.848-7.192,7.848a6.907,6.907,0,0,1-5.369-2.653l1.492-1.628H1v5.045l2.207-2.408A8.176,8.176,0,0,0,9.5,19.535c4.689,0,8.5-4.158,8.5-9.275V9.547Z" transform="translate(-1 -1.035)" fill="#fff"/>
</svg>
