<svg xmlns="http://www.w3.org/2000/svg" width="23" height="19.5" viewBox="0 0 23 19.5">
  <path id="username" d="M13.656,7q-.272,0-.547.02A9.75,9.75,0,0,0,13.758,26.5a11.511,11.511,0,0,0,7.2-2.827c1.112-.93,3.565-3.156,5.112-4.686a3.164,3.164,0,0,0,0-4.477c-1.561-1.548-4.059-3.784-5.154-4.722A11.027,11.027,0,0,0,13.656,7Zm.469,1.727A9.369,9.369,0,0,1,19.8,11.095c1.049.9,3.566,3.153,5.062,4.637a1.416,1.416,0,0,1,0,2.034c-1.492,1.475-3.978,3.729-5.006,4.588a9.947,9.947,0,0,1-6.094,2.426,8.018,8.018,0,0,1-8.027-8.424,8.1,8.1,0,0,1,7.49-7.617A8.325,8.325,0,0,1,14.125,8.729Zm-.367,2.86a2.294,2.294,0,1,0,2.3,2.294A2.3,2.3,0,0,0,13.758,11.589Zm-3.187,5.735a.83.83,0,0,0-.831.83V18.9c0,1.275,1.628,2.436,4.018,2.436s4.018-1.161,4.018-2.436v-.748a.83.83,0,0,0-.831-.83Z" transform="translate(-4 -7.001)" fill="#fff"/>
</svg>
