<?xml version="1.0" encoding="utf-8"?>
<svg xmlns="http://www.w3.org/2000/svg" viewBox="0 0 48 48" width="144" height="144">
  <path d="M4.4960938 1.0019531C4.4170938 1.0019531 4.3388125 1.0065312 4.2578125 1.0195312C3.7348125 1.1045313 3.2945625 1.4610781 3.1015625 1.9550781C1.8275625 5.2300781 2.5160469 7.7286406 3.1230469 9.9316406C3.2810469 10.504641 3.4357344 11.055375 3.5527344 11.609375C2.5467344 12.849375 2 14.381 2 16C2 18.726 3.5979531 21.177312 6.0019531 22.320312C6.0179531 24.557312 6.345 30 13 30C13.086 30 13.172766 29.999094 13.259766 29.996094C10.032766 32.489094 4.8177969 37.146422 4.5917969 41.357422C4.5027969 43.030422 5.1760625 44.515344 6.5390625 45.652344C7.9790625 46.852344 9.3947656 47.058594 10.634766 47.058594C10.979766 47.058594 11.309047 47.042344 11.623047 47.027344C11.913047 47.014344 12.205 47 12.5 47C17.665 47 21.392594 43.757656 21.933594 38.972656C28.262594 38.720656 32.792109 36.762531 35.412109 33.144531C38.492109 28.892531 38.010656 23.568797 37.472656 20.841797C38.842656 20.544797 40.111938 19.839547 41.085938 18.810547C41.450938 18.424547 41.761391 18.003594 42.025391 17.558594L45.933594 17.193359C46.392594 17.150359 46.757641 16.789078 46.806641 16.330078C46.838641 16.026078 46.727906 15.730437 46.503906 15.523438C45.723906 14.804438 43.836984 12.952797 42.583984 11.716797C42.119984 10.461797 41.282766 9.3230781 40.134766 8.4550781C38.853766 7.4860781 37.475531 6.9960938 36.019531 6.9960938C35.545531 6.9960938 35.063219 7.0483438 34.574219 7.1523438C29.649219 8.1923437 25.561703 14.474969 24.470703 16.292969C24.293703 16.337969 24.101438 16.357422 23.898438 16.357422C19.873438 16.357422 10.936344 7.8780156 5.6523438 1.5410156C5.3633438 1.1940156 4.9400937 1.0019531 4.4960938 1.0019531 z M 18.341797 1.0078125C17.832797 1.0618125 17.387203 1.371125 17.158203 1.828125C15.875203 4.393125 15.355047 6.6803906 15.248047 8.6503906C18.385047 11.482391 21.234469 13.54425 22.980469 14.15625L23.566406 13.980469C24.395406 12.729469 25.543078 11.169266 26.955078 9.6972656C25.035078 7.8992656 22.094875 4.5915 19.671875 1.5625C19.352875 1.1645 18.843797 0.9518125 18.341797 1.0078125 z" fill="#FFFFFF" />
</svg>